<?xml version="1.0" encoding="UTF-8" standalone="no"?>
<svg
   xmlns:dc="http://purl.org/dc/elements/1.1/"
   xmlns:cc="http://creativecommons.org/ns#"
   xmlns:rdf="http://www.w3.org/1999/02/22-rdf-syntax-ns#"
   xmlns:svg="http://www.w3.org/2000/svg"
   xmlns="http://www.w3.org/2000/svg"
   xmlns:sodipodi="http://sodipodi.sourceforge.net/DTD/sodipodi-0.dtd"
   xmlns:inkscape="http://www.inkscape.org/namespaces/inkscape"
   width="210mm"
   height="297mm"
   viewBox="0 0 210 297"
   version="1.1"
   id="svg6832"
   inkscape:version="1.0.1 (3bc2e813f5, 2020-09-07)"
   sodipodi:docname="clock front steel.svg">
  <defs
     id="defs6826" />
  <sodipodi:namedview
     id="base"
     pagecolor="#ffffff"
     bordercolor="#666666"
     borderopacity="1.0"
     inkscape:pageopacity="0.0"
     inkscape:pageshadow="2"
     inkscape:zoom="0.35"
     inkscape:cx="400"
     inkscape:cy="560"
     inkscape:document-units="mm"
     inkscape:current-layer="layer1"
     inkscape:document-rotation="0"
     showgrid="false"
     inkscape:window-width="1267"
     inkscape:window-height="728"
     inkscape:window-x="83"
     inkscape:window-y="0"
     inkscape:window-maximized="0" />
  <metadata
     id="metadata6829">
    <rdf:RDF>
      <cc:Work
         rdf:about="">
        <dc:format>image/svg+xml</dc:format>
        <dc:type
           rdf:resource="http://purl.org/dc/dcmitype/StillImage" />
        <dc:title />
      </cc:Work>
    </rdf:RDF>
  </metadata>
  <g
     inkscape:label="Layer 1"
     inkscape:groupmode="layer"
     id="layer1">
    <rect
       style="fill:none;stroke:#000000;stroke-width:0.258713;stroke-miterlimit:10;stroke-dasharray:none;stroke-opacity:1"
       id="rect1535"
       width="101.74129"
       height="21.741289"
       x="19.129354"
       y="-78.870651"
       transform="rotate(90)" />
    <rect
       style="fill:none;stroke:#000000;stroke-width:0.258713;stroke-miterlimit:10;stroke-dasharray:none;stroke-opacity:1"
       id="rect1535-8"
       width="101.74129"
       height="21.741289"
       x="19.129354"
       y="-48.870636"
       transform="rotate(90)" />
    <rect
       style="fill:none;stroke:#000000;stroke-width:0.214422;stroke-miterlimit:10;stroke-dasharray:none;stroke-opacity:1"
       id="rect1552"
       width="226.78557"
       height="97.785576"
       x="0.10721362"
       y="-97.892792"
       rx="1.1822993"
       ry="1.1666497"
       transform="rotate(90)" />
    <g
       aria-label="Month"
       transform="matrix(0,0.35277777,-0.35277777,0,82.000028,7)"
       id="text1556"
       style="font-style:normal;font-variant:normal;font-weight:bold;font-stretch:normal;font-size:14px;line-height:1.25;font-family:'Courier New';-inkscape-font-specification:'Courier New Bold';fill:#0000ff;fill-opacity:1;stroke:none;stroke-width:0.75">
      <path
         d="m 35.861454,79.536522 v 4.176758 h 0.505859 q 0.50586,0 0.717774,0.198242 0.21875,0.191406 0.21875,0.505859 0,0.307617 -0.21875,0.50586 -0.211914,0.191406 -0.717774,0.191406 h -1.838867 q -0.505859,0 -0.717773,-0.191406 -0.21875,-0.198243 -0.21875,-0.512696 0,-0.307617 0.211914,-0.499023 0.211914,-0.198242 0.65625,-0.198242 v -5.482422 q -0.369141,-0.03418 -0.560547,-0.225586 -0.18457,-0.191406 -0.18457,-0.478516 0,-0.314453 0.211914,-0.505859 0.21875,-0.198242 0.724609,-0.198242 l 1.538086,0.0068 1.907227,4.217773 1.873046,-4.224609 1.551758,0.0068 q 0.50586,0 0.717774,0.191406 0.21875,0.191406 0.21875,0.505859 0,0.28711 -0.191407,0.478516 -0.191406,0.191406 -0.55371,0.225586 v 5.482422 q 0.444335,0 0.65625,0.198242 0.211914,0.198242 0.211914,0.505859 0,0.307617 -0.21875,0.50586 -0.211914,0.191406 -0.717774,0.191406 h -1.845703 q -0.499023,0 -0.717773,-0.191406 -0.211914,-0.198243 -0.211914,-0.512696 0,-0.307617 0.211914,-0.499023 0.21875,-0.198242 0.717773,-0.198242 h 0.512695 V 79.53645 l -1.606445,3.609375 h -1.216797 z"
         style="font-style:normal;font-variant:normal;font-weight:bold;font-stretch:normal;font-size:14px;font-family:'Courier New';-inkscape-font-specification:'Courier New Bold';fill:#0000ff;stroke-width:0.75"
         id="path1625" />
      <path
         d="m 50.093876,82.127342 q 0,0.806641 -0.451172,1.56543 -0.444336,0.751953 -1.333008,1.203125 -0.881836,0.444336 -1.845703,0.444336 -0.957031,0 -1.832031,-0.4375 -0.875,-0.444336 -1.333008,-1.203125 -0.458008,-0.758789 -0.458008,-1.585938 0,-0.84082 0.464844,-1.647461 0.464844,-0.813476 1.333008,-1.27832 0.875,-0.464844 1.825195,-0.464844 0.957031,0 1.838867,0.478516 0.888672,0.47168 1.339844,1.27832 0.451172,0.799805 0.451172,1.647461 z m -1.401367,0.0068 q 0,-0.676758 -0.485352,-1.24414 -0.663086,-0.765625 -1.743164,-0.765625 -0.950195,0 -1.585937,0.608398 -0.635743,0.608398 -0.635743,1.408203 0,0.65625 0.642579,1.230469 0.642578,0.567383 1.579101,0.567383 0.943359,0 1.585938,-0.567383 0.642578,-0.574219 0.642578,-1.237305 z"
         style="font-style:normal;font-variant:normal;font-weight:bold;font-stretch:normal;font-size:14px;font-family:'Courier New';-inkscape-font-specification:'Courier New Bold';fill:#0000ff;stroke-width:0.75"
         id="path1627" />
      <path
         d="m 53.436649,78.907616 v 0.471679 q 0.382813,-0.328125 0.840821,-0.492187 0.464843,-0.164063 1.004882,-0.164063 1.244141,0 1.96875,0.772461 0.574219,0.615235 0.574219,1.613282 v 2.604492 q 0.444336,0 0.65625,0.198242 0.211914,0.191406 0.211914,0.505859 0,0.307617 -0.21875,0.50586 -0.211914,0.191406 -0.717773,0.191406 h -1.264649 q -0.505859,0 -0.724609,-0.191406 -0.211914,-0.198243 -0.211914,-0.512696 0,-0.307617 0.211914,-0.499023 0.211914,-0.198242 0.65625,-0.198242 v -2.645508 q 0,-0.458008 -0.246094,-0.669922 -0.321289,-0.273437 -0.963867,-0.273437 -0.485351,0 -0.854492,0.191406 -0.362305,0.18457 -0.922852,0.792969 v 2.604492 q 0.540039,0 0.697266,0.102539 0.334961,0.205078 0.334961,0.601562 0,0.307617 -0.21875,0.50586 -0.211914,0.191406 -0.717774,0.191406 h -1.592773 q -0.505859,0 -0.724609,-0.191406 -0.211914,-0.198243 -0.211914,-0.512696 0,-0.382812 0.328125,-0.594726 0.164062,-0.102539 0.704101,-0.102539 v -3.404297 q -0.444336,0 -0.65625,-0.198242 -0.211914,-0.198243 -0.211914,-0.50586 0,-0.307617 0.211914,-0.499023 0.21875,-0.198242 0.72461,-0.198242 z"
         style="font-style:normal;font-variant:normal;font-weight:bold;font-stretch:normal;font-size:14px;font-family:'Courier New';-inkscape-font-specification:'Courier New Bold';fill:#0000ff;stroke-width:0.75"
         id="path1629" />
      <path
         d="m 62.911259,80.308983 v 2.80957 q 0,0.451172 0.18457,0.594727 0.287109,0.225586 1.025391,0.225586 1.073242,0 1.982422,-0.458008 0.348632,-0.177735 0.546875,-0.177735 0.273437,0 0.471679,0.205079 0.205078,0.205078 0.205078,0.499023 0,0.273438 -0.21875,0.47168 -0.334961,0.321289 -1.326172,0.594726 -0.984375,0.266602 -1.661132,0.266602 -1.305664,0 -1.961914,-0.560547 -0.649414,-0.567383 -0.649414,-1.387695 v -3.083008 h -0.50586 q -0.505859,0 -0.724609,-0.191406 -0.211914,-0.198243 -0.211914,-0.512696 0,-0.307617 0.211914,-0.499023 0.21875,-0.198242 0.724609,-0.198242 h 0.50586 v -1.264649 q 0,-0.505859 0.191406,-0.717773 0.198242,-0.21875 0.512695,-0.21875 0.307617,0 0.499024,0.21875 0.198242,0.211914 0.198242,0.717773 v 1.264649 h 2.59082 q 0.505859,0 0.717773,0.198242 0.21875,0.191406 0.21875,0.505859 0,0.307617 -0.21875,0.50586 -0.211914,0.191406 -0.717773,0.191406 z"
         style="font-style:normal;font-variant:normal;font-weight:bold;font-stretch:normal;font-size:14px;font-family:'Courier New';-inkscape-font-specification:'Courier New Bold';fill:#0000ff;stroke-width:0.75"
         id="path1631" />
      <path
         d="m 70.21204,76.248436 v 2.987305 q 0.4375,-0.259766 0.881836,-0.382813 0.451172,-0.129883 0.90918,-0.129883 0.724609,0 1.291992,0.246094 0.567383,0.246094 0.936523,0.779297 0.375977,0.526367 0.375977,1.333008 v 2.631836 q 0.533203,0 0.697265,0.102539 0.328125,0.211914 0.328125,0.601562 0,0.307617 -0.211914,0.50586 -0.211914,0.191406 -0.717773,0.191406 h -1.599609 q -0.499024,0 -0.717774,-0.191406 -0.211914,-0.198243 -0.211914,-0.512696 0,-0.382812 0.328125,-0.594726 0.170898,-0.109375 0.697266,-0.102539 v -2.536133 q 0,-0.540039 -0.246094,-0.758789 -0.321289,-0.293945 -0.950195,-0.293945 -0.464844,0 -0.827149,0.18457 -0.355469,0.177734 -0.963867,0.779297 v 2.625 q 0.540039,0 0.697266,0.102539 0.334961,0.211914 0.334961,0.601562 0,0.307617 -0.21875,0.50586 -0.211915,0.191406 -0.717774,0.191406 H 68.71497 q -0.50586,0 -0.72461,-0.191406 -0.211914,-0.198243 -0.211914,-0.512696 0,-0.382812 0.334961,-0.594726 0.164063,-0.109375 0.697266,-0.102539 v -6.063477 h -0.239258 q -0.505859,0 -0.724609,-0.191406 -0.211914,-0.198242 -0.211914,-0.512695 0,-0.307618 0.211914,-0.499024 0.21875,-0.198242 0.724609,-0.198242 z"
         style="font-style:normal;font-variant:normal;font-weight:bold;font-stretch:normal;font-size:14px;font-family:'Courier New';-inkscape-font-specification:'Courier New Bold';fill:#0000ff;stroke-width:0.75"
         id="path1633" />
    </g>
    <g
       aria-label="Day"
       transform="matrix(0,0.35277777,-0.35277777,0,82.000028,6.0911)"
       id="text1560"
       style="font-style:normal;font-variant:normal;font-weight:bold;font-stretch:normal;font-size:14px;line-height:1.25;font-family:'Courier New';-inkscape-font-specification:'Courier New Bold';fill:#0000ff;fill-opacity:1;stroke:none;stroke-width:0.75">
      <path
         d="m 301.0824,83.132225 v -5.482422 q -0.44434,-0.0068 -0.65625,-0.198242 -0.21192,-0.198242 -0.21192,-0.505859 0,-0.314454 0.21192,-0.50586 0.21875,-0.198242 0.72461,-0.198242 l 2.93261,0.0068 q 0.6836,0 1.33301,0.25293 0.65625,0.252929 1.05274,0.642578 0.30078,0.293945 0.62207,0.80664 0.32812,0.512696 0.49218,1.018555 0.16407,0.505859 0.16407,1.237305 v 0.669922 q 0,0.888672 -0.30078,1.579101 -0.30079,0.683594 -0.79297,1.121094 -0.48536,0.430664 -0.91602,0.635742 -0.68359,0.321289 -1.77051,0.321289 h -2.8164 q -0.50586,0 -0.72461,-0.191406 -0.21192,-0.198242 -0.21192,-0.512695 0,-0.307618 0.21192,-0.50586 0.21875,-0.198242 0.65625,-0.191406 z m 1.40136,0 h 1.49024 q 0.83398,0 1.25781,-0.239258 0.55371,-0.314453 0.83399,-0.799804 0.28027,-0.485352 0.28027,-1.257813 v -0.663086 q 0,-0.663086 -0.25293,-1.162109 -0.39648,-0.779297 -0.89551,-1.066407 -0.49219,-0.293945 -1.2373,-0.293945 h -1.47657 z"
         style="font-style:normal;font-variant:normal;font-weight:bold;font-stretch:normal;font-size:14px;font-family:'Courier New';-inkscape-font-specification:'Courier New Bold';fill:#0000ff;stroke-width:0.75"
         id="path1618" />
      <path
         d="m 313.87927,84.533592 v -0.328125 q -0.52636,0.280274 -1.16211,0.416992 -0.63574,0.143555 -1.15527,0.143555 -1.12793,0 -1.83203,-0.594726 -0.7041,-0.601563 -0.7041,-1.326172 0,-0.881836 0.8955,-1.633789 0.90235,-0.758789 2.48829,-0.758789 0.63574,0 1.46972,0.136718 v -0.334961 q 0,-0.314453 -0.27344,-0.512695 -0.2666,-0.198242 -1.02539,-0.198242 -0.62207,0 -1.61328,0.246094 -0.36914,0.08887 -0.57422,0.08887 -0.28027,0 -0.47851,-0.198242 -0.19141,-0.205079 -0.19141,-0.519532 0,-0.177734 0.0684,-0.307617 0.0684,-0.129883 0.19141,-0.205078 0.12304,-0.08203 0.51269,-0.191406 0.51953,-0.143555 1.05957,-0.225586 0.54004,-0.08887 0.97754,-0.08887 1.30567,0 2.02344,0.567382 0.72461,0.560547 0.72461,1.538086 v 2.884766 h 0.23926 q 0.50586,0 0.71777,0.198242 0.21875,0.191406 0.21875,0.50586 0,0.307617 -0.21875,0.505859 -0.21191,0.191406 -0.71777,0.191406 z m 0,-2.508789 q -0.84082,-0.164062 -1.55176,-0.164062 -0.85449,0 -1.46972,0.416992 -0.38281,0.266601 -0.38281,0.540039 0,0.198242 0.18457,0.321289 0.34179,0.225586 0.93652,0.225586 0.50586,0 1.1416,-0.198242 0.64258,-0.198242 1.1416,-0.540039 z"
         style="font-style:normal;font-variant:normal;font-weight:bold;font-stretch:normal;font-size:14px;font-family:'Courier New';-inkscape-font-specification:'Courier New Bold';fill:#0000ff;stroke-width:0.75"
         id="path1620" />
      <path
         d="m 320.23669,84.485741 -2.42675,-4.757813 q -0.3418,-0.04102 -0.51953,-0.232422 -0.17774,-0.191406 -0.17774,-0.464843 0,-0.314454 0.21191,-0.50586 0.21875,-0.198242 0.72461,-0.198242 h 1.27832 q 0.50586,0 0.71778,0.198242 0.21875,0.191406 0.21875,0.50586 0,0.307617 -0.21875,0.505859 -0.21192,0.191406 -0.67676,0.191406 l 1.6543,3.219727 1.64062,-3.219727 q -0.45117,0 -0.66992,-0.191406 -0.21191,-0.198242 -0.21191,-0.512695 0,-0.307618 0.21191,-0.499024 0.21875,-0.198242 0.72461,-0.198242 h 1.31934 q 0.49902,0 0.71093,0.198242 0.21875,0.191406 0.21875,0.50586 0,0.280273 -0.18457,0.478515 -0.18457,0.191406 -0.54687,0.21875 l -3.21289,6.330078 q 0.52636,0 0.69043,0.102539 0.32812,0.211914 0.32812,0.601563 0,0.307617 -0.21875,0.499023 -0.21191,0.198242 -0.71777,0.198242 h -3.05567 q -0.50586,0 -0.72461,-0.198242 -0.21191,-0.191406 -0.21191,-0.499023 0,-0.314453 0.21191,-0.512695 0.21875,-0.191407 0.72461,-0.191407 h 1.39454 z"
         style="font-style:normal;font-variant:normal;font-weight:bold;font-stretch:normal;font-size:14px;font-family:'Courier New';-inkscape-font-specification:'Courier New Bold';fill:#0000ff;stroke-width:0.75"
         id="path1622" />
    </g>
    <g
       aria-label="Hour"
       transform="matrix(0,0.35277777,-0.35277777,0,87.000039,4.22)"
       id="text1564"
       style="font-style:normal;font-variant:normal;font-weight:bold;font-stretch:normal;font-size:14px;line-height:1.25;font-family:'Courier New';-inkscape-font-specification:'Courier New Bold';fill:#0000ff;fill-opacity:1;stroke:none;stroke-width:0.75">
      <path
         d="M 46.899971,180.31454 H 43.90583 v 2.03028 h 0.21875 q 0.50586,0 0.717774,0.19824 0.21875,0.19141 0.21875,0.50586 0,0.30762 -0.21875,0.50586 -0.211914,0.19141 -0.717774,0.19141 h -1.71582 q -0.505859,0 -0.724609,-0.19141 -0.211914,-0.19824 -0.211914,-0.5127 0,-0.38281 0.334961,-0.59472 0.164062,-0.10938 0.697265,-0.10254 v -5.48242 q -0.36914,-0.0342 -0.560547,-0.22559 -0.18457,-0.19141 -0.18457,-0.47852 0,-0.31445 0.211914,-0.50585 0.21875,-0.19825 0.724609,-0.19825 l 1.428711,0.007 q 0.50586,0 0.717774,0.19141 0.21875,0.1914 0.21875,0.50585 0,0.31446 -0.21875,0.5127 -0.211914,0.19141 -0.717774,0.19141 h -0.21875 v 2.05078 h 2.994141 v -2.05078 h -0.21875 q -0.505859,0 -0.724609,-0.19141 -0.211914,-0.19824 -0.211914,-0.5127 0,-0.31445 0.211914,-0.50585 0.21875,-0.19825 0.724609,-0.19825 l 1.428711,0.007 q 0.505859,0 0.717773,0.19141 0.21875,0.1914 0.21875,0.50585 0,0.28711 -0.191406,0.47852 -0.18457,0.19141 -0.553711,0.22559 v 5.48242 q 0.540039,0 0.697266,0.10254 0.334961,0.21191 0.334961,0.60156 0,0.30762 -0.21875,0.50586 -0.211914,0.19141 -0.717774,0.19141 h -1.71582 q -0.505859,0 -0.724609,-0.19141 -0.211914,-0.19824 -0.211914,-0.5127 0,-0.30761 0.21875,-0.49902 0.21875,-0.19824 0.717773,-0.19824 h 0.21875 z"
         style="font-style:normal;font-variant:normal;font-weight:bold;font-stretch:normal;font-size:14px;font-family:'Courier New';-inkscape-font-specification:'Courier New Bold';fill:#0000ff;stroke-width:0.75"
         id="path1583" />
      <path
         d="m 57.406807,180.75888 q 0,0.80664 -0.451172,1.56543 -0.444336,0.75195 -1.333008,1.20313 -0.881836,0.44433 -1.845703,0.44433 -0.957031,0 -1.832031,-0.4375 -0.875,-0.44433 -1.333008,-1.20312 -0.458008,-0.75879 -0.458008,-1.58594 0,-0.84082 0.464844,-1.64746 0.464844,-0.81348 1.333008,-1.27832 0.875,-0.46485 1.825195,-0.46485 0.957031,0 1.838867,0.47852 0.888672,0.47168 1.339844,1.27832 0.451172,0.7998 0.451172,1.64746 z m -1.401367,0.007 q 0,-0.67676 -0.485352,-1.24414 -0.663086,-0.76563 -1.743164,-0.76563 -0.950195,0 -1.585937,0.6084 -0.635743,0.6084 -0.635743,1.4082 0,0.65625 0.642579,1.23047 0.642578,0.56738 1.579101,0.56738 0.94336,0 1.585938,-0.56738 0.642578,-0.57422 0.642578,-1.2373 z"
         style="font-style:normal;font-variant:normal;font-weight:bold;font-stretch:normal;font-size:14px;font-family:'Courier New';-inkscape-font-specification:'Courier New Bold';fill:#0000ff;stroke-width:0.75"
         id="path1585" />
      <path
         d="m 65.145088,177.53915 v 4.80567 q 0.444336,0 0.65625,0.19824 0.211914,0.19824 0.211914,0.50586 0,0.30762 -0.21875,0.50586 -0.211914,0.19141 -0.717773,0.19141 h -1.333008 v -0.32129 q -0.601562,0.27343 -1.148437,0.41015 -0.546875,0.13672 -1.039063,0.13672 -0.69043,0 -1.196289,-0.28711 -0.505859,-0.29394 -0.799805,-0.80664 -0.211914,-0.36914 -0.211914,-0.92285 v -3.01465 h -0.239258 q -0.505859,0 -0.724609,-0.19141 -0.211914,-0.19824 -0.211914,-0.51269 0,-0.30762 0.211914,-0.49902 0.21875,-0.19825 0.724609,-0.19825 h 1.640625 v 4.16993 q 0,0.44433 0.211914,0.65625 0.21875,0.20507 0.663086,0.20507 0.423829,0 0.90918,-0.16406 0.492188,-0.1709 1.209961,-0.6084 v -2.85742 h -0.505859 q -0.50586,0 -0.72461,-0.19141 -0.211914,-0.19824 -0.211914,-0.51269 0,-0.30762 0.211914,-0.49902 0.21875,-0.19825 0.72461,-0.19825 z"
         style="font-style:normal;font-variant:normal;font-weight:bold;font-stretch:normal;font-size:14px;font-family:'Courier New';-inkscape-font-specification:'Courier New Bold';fill:#0000ff;stroke-width:0.75"
         id="path1587" />
      <path
         d="m 70.278877,177.53915 v 0.875 q 0.881836,-0.63574 1.387696,-0.84765 0.512695,-0.21192 0.957031,-0.21192 0.683594,0 1.326172,0.50586 0.4375,0.3418 0.4375,0.69727 0,0.30078 -0.211914,0.51269 -0.205078,0.20508 -0.499024,0.20508 -0.259765,0 -0.546875,-0.25976 -0.287109,-0.25977 -0.512695,-0.25977 -0.293945,0 -0.881836,0.36914 -0.581055,0.36914 -1.456055,1.10742 v 2.11231 h 1.996094 q 0.505859,0 0.717773,0.19824 0.21875,0.19141 0.21875,0.50586 0,0.30762 -0.21875,0.50586 -0.211914,0.19141 -0.717773,0.19141 h -4.231445 q -0.50586,0 -0.72461,-0.19141 -0.211914,-0.19824 -0.211914,-0.5127 0,-0.30761 0.211914,-0.49902 0.21875,-0.19824 0.72461,-0.19824 h 0.833984 v -3.4043 h -0.505859 q -0.50586,0 -0.72461,-0.19141 -0.211914,-0.19824 -0.211914,-0.51269 0,-0.30762 0.211914,-0.49902 0.21875,-0.19825 0.72461,-0.19825 z"
         style="font-style:normal;font-variant:normal;font-weight:bold;font-stretch:normal;font-size:14px;font-family:'Courier New';-inkscape-font-specification:'Courier New Bold';fill:#0000ff;stroke-width:0.75"
         id="path1589" />
    </g>
    <g
       aria-label="Minute"
       transform="matrix(0,0.35277777,-0.35277777,0,82.000028,7)"
       id="text1568"
       style="font-style:normal;font-variant:normal;font-weight:bold;font-stretch:normal;font-size:14px;line-height:1.25;font-family:'Courier New';-inkscape-font-specification:'Courier New Bold';fill:#0000ff;fill-opacity:1;stroke:none;stroke-width:0.75">
      <path
         d="m 157.52444,164.86299 v 4.17676 h 0.50586 q 0.50586,0 0.71778,0.19824 0.21875,0.19141 0.21875,0.50586 0,0.30762 -0.21875,0.50586 -0.21192,0.19141 -0.71778,0.19141 h -1.83886 q -0.50586,0 -0.71778,-0.19141 -0.21875,-0.19824 -0.21875,-0.5127 0,-0.30761 0.21192,-0.49902 0.21191,-0.19824 0.65625,-0.19824 v -5.48242 q -0.36914,-0.0342 -0.56055,-0.22559 -0.18457,-0.1914 -0.18457,-0.47851 0,-0.31446 0.21191,-0.50586 0.21875,-0.19825 0.72461,-0.19825 l 1.53809,0.007 1.90723,4.21777 1.87304,-4.22461 1.55176,0.007 q 0.50586,0 0.71777,0.19141 0.21875,0.1914 0.21875,0.50586 0,0.28711 -0.1914,0.47851 -0.19141,0.19141 -0.55371,0.22559 v 5.48242 q 0.44433,0 0.65625,0.19824 0.21191,0.19824 0.21191,0.50586 0,0.30762 -0.21875,0.50586 -0.21191,0.19141 -0.71777,0.19141 h -1.84571 q -0.49902,0 -0.71777,-0.19141 -0.21191,-0.19824 -0.21191,-0.5127 0,-0.30761 0.21191,-0.49902 0.21875,-0.19824 0.71777,-0.19824 h 0.5127 v -4.17676 l -1.60645,3.60938 h -1.21679 z"
         style="font-style:normal;font-variant:normal;font-weight:bold;font-stretch:normal;font-size:14px;font-family:'Courier New';-inkscape-font-specification:'Courier New Bold';fill:#0000ff;stroke-width:0.75"
         id="path1592" />
      <path
         d="m 168.61917,161.57491 v 1.48339 h -1.66797 v -1.48339 z m 0.19141,2.65918 v 4.80566 h 1.68164 q 0.50586,0 0.71777,0.19824 0.21875,0.19141 0.21875,0.50586 0,0.30762 -0.21875,0.50586 -0.21191,0.19141 -0.71777,0.19141 h -4.76465 q -0.50586,0 -0.72461,-0.19141 -0.21191,-0.19824 -0.21191,-0.5127 0,-0.30761 0.21191,-0.49902 0.21875,-0.19824 0.72461,-0.19824 h 1.68164 v -3.4043 h -1.12793 q -0.49902,0 -0.71777,-0.1914 -0.21875,-0.19825 -0.21875,-0.5127 0,-0.30762 0.21191,-0.49902 0.21875,-0.19824 0.72461,-0.19824 z"
         style="font-style:normal;font-variant:normal;font-weight:bold;font-stretch:normal;font-size:14px;font-family:'Courier New';-inkscape-font-specification:'Courier New Bold';fill:#0000ff;stroke-width:0.75"
         id="path1594" />
      <path
         d="m 175.09964,164.23409 v 0.47167 q 0.38281,-0.32812 0.84082,-0.49218 0.46484,-0.16407 1.00488,-0.16407 1.24414,0 1.96875,0.77247 0.57422,0.61523 0.57422,1.61328 v 2.60449 q 0.44434,0 0.65625,0.19824 0.21192,0.19141 0.21192,0.50586 0,0.30762 -0.21875,0.50586 -0.21192,0.19141 -0.71778,0.19141 h -1.26465 q -0.50586,0 -0.72461,-0.19141 -0.21191,-0.19824 -0.21191,-0.5127 0,-0.30761 0.21191,-0.49902 0.21192,-0.19824 0.65625,-0.19824 v -2.64551 q 0,-0.45801 -0.24609,-0.66992 -0.32129,-0.27344 -0.96387,-0.27344 -0.48535,0 -0.85449,0.19141 -0.3623,0.18457 -0.92285,0.79297 v 2.60449 q 0.54004,0 0.69727,0.10254 0.33496,0.20508 0.33496,0.60156 0,0.30762 -0.21875,0.50586 -0.21192,0.19141 -0.71778,0.19141 h -1.59277 q -0.50586,0 -0.72461,-0.19141 -0.21191,-0.19824 -0.21191,-0.5127 0,-0.38281 0.32812,-0.59472 0.16406,-0.10254 0.7041,-0.10254 v -3.4043 q -0.44433,0 -0.65625,-0.19824 -0.21191,-0.19824 -0.21191,-0.50586 0,-0.30762 0.21191,-0.49902 0.21875,-0.19824 0.72461,-0.19824 z"
         style="font-style:normal;font-variant:normal;font-weight:bold;font-stretch:normal;font-size:14px;font-family:'Courier New';-inkscape-font-specification:'Courier New Bold';fill:#0000ff;stroke-width:0.75"
         id="path1596" />
      <path
         d="m 187.89651,164.23409 v 4.80566 q 0.44434,0 0.65625,0.19824 0.21192,0.19824 0.21192,0.50586 0,0.30762 -0.21875,0.50586 -0.21192,0.19141 -0.71777,0.19141 h -1.33301 v -0.32129 q -0.60156,0.27343 -1.14844,0.41015 -0.54687,0.13672 -1.03906,0.13672 -0.69043,0 -1.19629,-0.28711 -0.50586,-0.29394 -0.79981,-0.80664 -0.21191,-0.36914 -0.21191,-0.92285 v -3.01465 h -0.23926 q -0.50586,0 -0.72461,-0.1914 -0.21191,-0.19825 -0.21191,-0.5127 0,-0.30762 0.21191,-0.49902 0.21875,-0.19824 0.72461,-0.19824 h 1.64063 v 4.16992 q 0,0.44433 0.21191,0.65625 0.21875,0.20508 0.66309,0.20508 0.42383,0 0.90918,-0.16407 0.49218,-0.1709 1.20996,-0.6084 v -2.85742 h -0.50586 q -0.50586,0 -0.72461,-0.1914 -0.21192,-0.19825 -0.21192,-0.5127 0,-0.30762 0.21192,-0.49902 0.21875,-0.19824 0.72461,-0.19824 z"
         style="font-style:normal;font-variant:normal;font-weight:bold;font-stretch:normal;font-size:14px;font-family:'Courier New';-inkscape-font-specification:'Courier New Bold';fill:#0000ff;stroke-width:0.75"
         id="path1598" />
      <path
         d="m 192.97562,165.63545 v 2.80957 q 0,0.45117 0.18457,0.59473 0.28711,0.22559 1.02539,0.22559 1.07324,0 1.98242,-0.45801 0.34863,-0.17774 0.54687,-0.17774 0.27344,0 0.47168,0.20508 0.20508,0.20508 0.20508,0.49902 0,0.27344 -0.21875,0.47168 -0.33496,0.32129 -1.32617,0.59473 -0.98437,0.2666 -1.66113,0.2666 -1.30567,0 -1.96192,-0.56054 -0.64941,-0.56739 -0.64941,-1.3877 v -3.08301 h -0.50586 q -0.50586,0 -0.72461,-0.1914 -0.21191,-0.19825 -0.21191,-0.5127 0,-0.30762 0.21191,-0.49902 0.21875,-0.19824 0.72461,-0.19824 h 0.50586 v -1.26465 q 0,-0.50586 0.19141,-0.71778 0.19824,-0.21875 0.51269,-0.21875 0.30762,0 0.49902,0.21875 0.19825,0.21192 0.19825,0.71778 v 1.26465 h 2.59082 q 0.50586,0 0.71777,0.19824 0.21875,0.1914 0.21875,0.50586 0,0.30761 -0.21875,0.50586 -0.21191,0.1914 -0.71777,0.1914 z"
         style="font-style:normal;font-variant:normal;font-weight:bold;font-stretch:normal;font-size:14px;font-family:'Courier New';-inkscape-font-specification:'Courier New Bold';fill:#0000ff;stroke-width:0.75"
         id="path1600" />
      <path
         d="m 205.23929,168.04854 h -5.74903 q 0.21875,0.54687 0.77247,0.88183 0.56054,0.33497 1.51074,0.33497 0.77929,0 2.07129,-0.33497 0.5332,-0.13671 0.73828,-0.13671 0.28027,0 0.47168,0.19824 0.1914,0.19824 0.1914,0.49902 0,0.27344 -0.20507,0.46484 -0.27344,0.25293 -1.33301,0.48536 -1.05957,0.22558 -2.03711,0.22558 -1.68164,0 -2.69336,-0.95019 -1.00488,-0.9502 -1.00488,-2.33789 0,-1.47657 1.08691,-2.39942 1.09375,-0.92969 2.51563,-0.92969 0.85449,0 1.56543,0.30079 0.71777,0.30078 1.0664,0.64941 0.49219,0.50586 0.81348,1.25098 0.21875,0.51953 0.21875,1.20312 z m -1.55176,-1.40137 q -0.32129,-0.60156 -0.84082,-0.89551 -0.51953,-0.30078 -1.2373,-0.30078 -0.71094,0 -1.23047,0.30078 -0.51953,0.29395 -0.84766,0.89551 z"
         style="font-style:normal;font-variant:normal;font-weight:bold;font-stretch:normal;font-size:14px;font-family:'Courier New';-inkscape-font-specification:'Courier New Bold';fill:#0000ff;stroke-width:0.75"
         id="path1602" />
    </g>
    <g
       aria-label="Second"
       transform="matrix(0,0.35277777,-0.35277777,0,82.000028,5.91987)"
       id="text1572"
       style="font-style:normal;font-variant:normal;font-weight:bold;font-stretch:normal;font-size:14px;line-height:1.25;font-family:'Courier New';-inkscape-font-specification:'Courier New Bold';fill:#0000ff;fill-opacity:1;stroke:none;stroke-width:0.75">
      <path
         d="m 277.89026,169.79854 q -0.18457,0.21875 -0.30078,0.28027 -0.10938,0.0615 -0.27344,0.0615 -0.32129,0 -0.51953,-0.21192 -0.19141,-0.21875 -0.19141,-0.71777 v -0.94336 q 0,-0.50586 0.19141,-0.71778 0.19824,-0.21875 0.51953,-0.21875 0.24609,0 0.41016,0.12989 0.17089,0.12988 0.25976,0.4375 0.0889,0.30078 0.18457,0.41015 0.19824,0.21192 0.7041,0.43067 0.50586,0.21875 1.10743,0.21875 0.93652,0 1.53808,-0.4375 0.38281,-0.2666 0.38281,-0.65625 0,-0.25977 -0.18457,-0.48535 -0.18457,-0.23243 -0.60156,-0.38282 -0.27344,-0.10254 -1.22363,-0.28027 -1.14844,-0.21191 -1.73633,-0.51269 -0.58789,-0.30079 -0.92969,-0.84766 -0.34179,-0.54688 -0.34179,-1.18262 0,-1.00488 0.84082,-1.75683 0.84082,-0.75879 2.1875,-0.75879 0.54004,0 0.99804,0.12304 0.46485,0.11621 0.84082,0.36231 0.27344,-0.2666 0.54688,-0.2666 0.30762,0 0.49902,0.21875 0.19824,0.21191 0.19824,0.71093 v 1.05274 q 0,0.50586 -0.19824,0.72461 -0.1914,0.21191 -0.49902,0.21191 -0.25977,0 -0.45117,-0.15722 -0.15039,-0.11622 -0.22559,-0.46485 -0.0752,-0.34863 -0.19141,-0.49902 -0.19824,-0.25977 -0.59472,-0.4375 -0.39649,-0.17774 -0.91602,-0.17774 -0.75879,0 -1.20312,0.35547 -0.4375,0.34864 -0.4375,0.73145 0,0.25976 0.17773,0.50586 0.18457,0.23926 0.5332,0.37597 0.23243,0.0957 1.30567,0.30762 1.08008,0.21192 1.6543,0.46484 0.58105,0.25293 0.96386,0.79297 0.38282,0.54004 0.38282,1.28516 0,1.03906 -0.73145,1.66113 -0.9707,0.82032 -2.47461,0.82032 -0.58105,0 -1.13476,-0.14356 -0.54688,-0.13672 -1.06641,-0.41699 z"
         style="font-style:normal;font-variant:normal;font-weight:bold;font-stretch:normal;font-size:14px;font-family:'Courier New';-inkscape-font-specification:'Courier New Bold';fill:#0000ff;stroke-width:0.75"
         id="path1605" />
      <path
         d="m 291.85608,167.76143 h -5.74902 q 0.21875,0.54687 0.77246,0.88183 0.56054,0.33497 1.51074,0.33497 0.7793,0 2.07129,-0.33497 0.5332,-0.13671 0.73828,-0.13671 0.28027,0 0.47168,0.19824 0.19141,0.19824 0.19141,0.49902 0,0.27344 -0.20508,0.46485 -0.27344,0.25293 -1.33301,0.48535 -1.05957,0.22558 -2.03711,0.22558 -1.68164,0 -2.69336,-0.95019 -1.00488,-0.9502 -1.00488,-2.33789 0,-1.47657 1.08691,-2.39942 1.09375,-0.92968 2.51563,-0.92968 0.85449,0 1.56543,0.30078 0.71777,0.30078 1.0664,0.64941 0.49219,0.50586 0.81348,1.25098 0.21875,0.51953 0.21875,1.20312 z m -1.55176,-1.40137 q -0.32129,-0.60156 -0.84082,-0.89551 -0.51953,-0.30078 -1.2373,-0.30078 -0.71094,0 -1.23047,0.30078 -0.51953,0.29395 -0.84766,0.89551 z"
         style="font-style:normal;font-variant:normal;font-weight:bold;font-stretch:normal;font-size:14px;font-family:'Courier New';-inkscape-font-specification:'Courier New Bold';fill:#0000ff;stroke-width:0.75"
         id="path1607" />
      <path
         d="m 298.92444,164.19991 q 0.25293,-0.23926 0.51953,-0.23926 0.30078,0 0.49219,0.21875 0.19824,0.21191 0.19824,0.71094 v 0.90234 q 0,0.50586 -0.19824,0.71777 -0.19141,0.21192 -0.50586,0.21192 -0.28711,0 -0.48535,-0.16407 -0.14356,-0.12304 -0.22559,-0.49902 -0.082,-0.38281 -0.39648,-0.56738 -0.55371,-0.32813 -1.41504,-0.32813 -0.99121,0 -1.59278,0.58106 -0.59472,0.58105 -0.59472,1.46972 0,0.82032 0.57422,1.29883 0.57421,0.47168 1.90722,0.47168 0.875,0 1.42871,-0.17773 0.32813,-0.10938 0.62207,-0.36914 0.29395,-0.2666 0.53321,-0.2666 0.28711,0 0.49218,0.21191 0.21192,0.21191 0.21192,0.49902 0,0.46485 -0.63574,0.88184 -0.94336,0.62207 -2.76172,0.62207 -1.63379,0 -2.54297,-0.67676 -1.23047,-0.90918 -1.23047,-2.48828 0,-1.49707 0.99805,-2.47461 0.99804,-0.98437 2.60449,-0.98437 0.58105,0 1.08008,0.10937 0.49902,0.10938 0.92285,0.32813 z"
         style="font-style:normal;font-variant:normal;font-weight:bold;font-stretch:normal;font-size:14px;font-family:'Courier New';-inkscape-font-specification:'Courier New Bold';fill:#0000ff;stroke-width:0.75"
         id="path1609" />
      <path
         d="m 308.78186,167.1667 q 0,0.80664 -0.45117,1.56543 -0.44434,0.75196 -1.33301,1.20313 -0.88184,0.44433 -1.8457,0.44433 -0.95703,0 -1.83203,-0.4375 -0.875,-0.44433 -1.33301,-1.20312 -0.45801,-0.75879 -0.45801,-1.58594 0,-0.84082 0.46484,-1.64746 0.46485,-0.81348 1.33301,-1.27832 0.875,-0.46484 1.8252,-0.46484 0.95703,0 1.83886,0.47851 0.88868,0.47168 1.33985,1.27832 0.45117,0.79981 0.45117,1.64746 z m -1.40137,0.007 q 0,-0.67676 -0.48535,-1.24414 -0.66308,-0.76563 -1.74316,-0.76563 -0.9502,0 -1.58594,0.6084 -0.63574,0.6084 -0.63574,1.4082 0,0.65625 0.64258,1.23047 0.64257,0.56739 1.5791,0.56739 0.94336,0 1.58594,-0.56739 0.64257,-0.57422 0.64257,-1.2373 z"
         style="font-style:normal;font-variant:normal;font-weight:bold;font-stretch:normal;font-size:14px;font-family:'Courier New';-inkscape-font-specification:'Courier New Bold';fill:#0000ff;stroke-width:0.75"
         id="path1611" />
      <path
         d="m 312.12463,163.94698 v 0.47168 q 0.38282,-0.32813 0.84082,-0.49219 0.46485,-0.16406 1.00489,-0.16406 1.24414,0 1.96875,0.77246 0.57422,0.61523 0.57422,1.61328 v 2.60449 q 0.44433,0 0.65625,0.19824 0.21191,0.19141 0.21191,0.50586 0,0.30762 -0.21875,0.50586 -0.21191,0.19141 -0.71777,0.19141 h -1.26465 q -0.50586,0 -0.72461,-0.19141 -0.21192,-0.19824 -0.21192,-0.51269 0,-0.30762 0.21192,-0.49903 0.21191,-0.19824 0.65625,-0.19824 v -2.64551 q 0,-0.45801 -0.2461,-0.66992 -0.32128,-0.27344 -0.96386,-0.27344 -0.48535,0 -0.85449,0.19141 -0.36231,0.18457 -0.92286,0.79297 v 2.60449 q 0.54004,0 0.69727,0.10254 0.33496,0.20508 0.33496,0.60156 0,0.30762 -0.21875,0.50586 -0.21191,0.19141 -0.71777,0.19141 h -1.59278 q -0.50586,0 -0.72461,-0.19141 -0.21191,-0.19824 -0.21191,-0.51269 0,-0.38282 0.32813,-0.59473 0.16406,-0.10254 0.7041,-0.10254 v -3.4043 q -0.44434,0 -0.65625,-0.19824 -0.21192,-0.19824 -0.21192,-0.50586 0,-0.30762 0.21192,-0.49902 0.21875,-0.19824 0.72461,-0.19824 z"
         style="font-style:normal;font-variant:normal;font-weight:bold;font-stretch:normal;font-size:14px;font-family:'Courier New';-inkscape-font-specification:'Courier New Bold';fill:#0000ff;stroke-width:0.75"
         id="path1613" />
      <path
         d="m 325.16077,161.2878 v 7.46484 h 0.23925 q 0.49903,0 0.71778,0.19824 0.21875,0.19141 0.21875,0.50586 0,0.30762 -0.21875,0.50586 -0.21192,0.19141 -0.71778,0.19141 h -1.64062 v -0.3418 q -0.47852,0.28027 -1.00488,0.42383 -0.51953,0.14355 -1.08008,0.14355 -1.5791,0 -2.54297,-0.90918 -0.96387,-0.91601 -0.96387,-2.27636 0,-1.42188 1.01172,-2.42676 1.01172,-1.00488 2.46777,-1.00488 0.54688,0 1.07325,0.17089 0.52636,0.16407 1.03906,0.49903 v -1.74317 h -0.23926 q -0.50586,0 -0.72461,-0.1914 -0.21191,-0.19825 -0.21191,-0.50586 0,-0.31446 0.21191,-0.50586 0.21875,-0.19824 0.72461,-0.19824 z m -1.40137,5.94726 q 0,-0.86816 -0.6084,-1.46972 -0.6084,-0.60157 -1.49023,-0.60157 -0.875,0 -1.4834,0.60157 -0.6084,0.60156 -0.6084,1.44921 0,0.77246 0.54687,1.27149 0.54688,0.49219 1.54493,0.49219 0.99121,0 1.54492,-0.49219 0.55371,-0.49903 0.55371,-1.25098 z"
         style="font-style:normal;font-variant:normal;font-weight:bold;font-stretch:normal;font-size:14px;font-family:'Courier New';-inkscape-font-specification:'Courier New Bold';fill:#0000ff;stroke-width:0.75"
         id="path1615" />
    </g>
    <circle
       style="fill:none;stroke:#000000;stroke-width:0.149552;stroke-miterlimit:10;stroke-dasharray:none;stroke-opacity:1"
       id="path1640"
       cx="125.05001"
       cy="-82.949997"
       r="1.9752239"
       transform="rotate(90)" />
    <circle
       style="fill:none;stroke:#000000;stroke-width:0.149552;stroke-miterlimit:10;stroke-dasharray:none;stroke-opacity:1"
       id="path1640-8"
       cx="15.050009"
       cy="-82.949997"
       r="1.9752239"
       transform="rotate(90)" />
    <circle
       style="fill:none;stroke:#000000;stroke-width:0.149552;stroke-miterlimit:10;stroke-dasharray:none;stroke-opacity:1"
       id="path1640-8-6"
       cx="15.050009"
       cy="-13.949997"
       r="1.9752241"
       transform="rotate(90)" />
    <circle
       style="fill:none;stroke:#000000;stroke-width:0.149552;stroke-miterlimit:10;stroke-dasharray:none;stroke-opacity:1"
       id="path1640-9"
       cx="125.05001"
       cy="-13.949997"
       r="1.9752241"
       transform="rotate(90)" />
    <circle
       style="fill:none;stroke:#000000;stroke-width:0.214909;stroke-miterlimit:10"
       id="path1191"
       cx="150.25"
       cy="-43.499996"
       r="6.1425452"
       transform="rotate(90)" />
    <circle
       style="fill:none;stroke:#000000;stroke-width:0.287801;stroke-miterlimit:10"
       id="path190"
       cx="189.5"
       cy="-48.999996"
       r="9.3560991"
       transform="rotate(90)" />
    <g
       aria-label="Initiate"
       transform="matrix(0,0.35277777,-0.35277777,0,89.000038,0)"
       id="text534"
       style="font-style:normal;font-variant:normal;font-weight:bold;font-stretch:normal;font-size:14px;line-height:1.25;font-family:'Courier New';-inkscape-font-specification:'Courier New Bold';fill:#0000ff;stroke-width:0.75">
      <path
         d="m 508.31985,183.39986 v 5.48242 h 1.41504 q 0.50586,0 0.71778,0.19824 0.21875,0.19141 0.21875,0.50586 0,0.30762 -0.21875,0.50586 -0.21192,0.19141 -0.71778,0.19141 h -4.23144 q -0.50586,0 -0.72461,-0.19141 -0.21191,-0.19824 -0.21191,-0.5127 0,-0.30761 0.21191,-0.49902 0.21875,-0.19824 0.72461,-0.19824 h 1.41504 v -5.48242 h -1.41504 q -0.50586,0 -0.72461,-0.19141 -0.21191,-0.19824 -0.21191,-0.51269 0,-0.31446 0.21191,-0.50586 0.21875,-0.19825 0.72461,-0.19825 l 4.23144,0.007 q 0.50586,0 0.71778,0.19141 0.21875,0.1914 0.21875,0.50586 0,0.31445 -0.21875,0.51269 -0.21192,0.19141 -0.71778,0.19141 z"
         style="font-style:normal;font-variant:normal;font-weight:bold;font-stretch:normal;font-size:14px;font-family:'Courier New';-inkscape-font-specification:'Courier New Bold';fill:#0000ff;stroke-width:0.75"
         id="path553" />
      <path
         d="m 514.60208,184.07661 v 0.47168 q 0.38281,-0.32812 0.84082,-0.49218 0.46485,-0.16407 1.00488,-0.16407 1.24415,0 1.96875,0.77247 0.57422,0.61523 0.57422,1.61328 v 2.60449 q 0.44434,0 0.65625,0.19824 0.21192,0.19141 0.21192,0.50586 0,0.30762 -0.21875,0.50586 -0.21192,0.19141 -0.71778,0.19141 h -1.26464 q -0.50586,0 -0.72461,-0.19141 -0.21192,-0.19824 -0.21192,-0.5127 0,-0.30761 0.21192,-0.49902 0.21191,-0.19824 0.65625,-0.19824 v -2.64551 q 0,-0.45801 -0.2461,-0.66992 -0.32129,-0.27344 -0.96386,-0.27344 -0.48536,0 -0.8545,0.19141 -0.3623,0.18457 -0.92285,0.79297 v 2.60449 q 0.54004,0 0.69727,0.10254 0.33496,0.20508 0.33496,0.60156 0,0.30762 -0.21875,0.50586 -0.21192,0.19141 -0.71778,0.19141 h -1.59277 q -0.50586,0 -0.72461,-0.19141 -0.21191,-0.19824 -0.21191,-0.5127 0,-0.38281 0.32812,-0.59472 0.16407,-0.10254 0.7041,-0.10254 v -3.4043 q -0.44433,0 -0.65625,-0.19824 -0.21191,-0.19824 -0.21191,-0.50586 0,-0.30762 0.21191,-0.49902 0.21875,-0.19825 0.72461,-0.19825 z"
         style="font-style:normal;font-variant:normal;font-weight:bold;font-stretch:normal;font-size:14px;font-family:'Courier New';-inkscape-font-specification:'Courier New Bold';fill:#0000ff;stroke-width:0.75"
         id="path555" />
      <path
         d="m 524.92435,181.41743 v 1.4834 h -1.66797 v -1.4834 z m 0.1914,2.65918 v 4.80567 h 1.68164 q 0.50586,0 0.71778,0.19824 0.21875,0.19141 0.21875,0.50586 0,0.30762 -0.21875,0.50586 -0.21192,0.19141 -0.71778,0.19141 h -4.76464 q -0.50586,0 -0.72461,-0.19141 -0.21192,-0.19824 -0.21192,-0.5127 0,-0.30761 0.21192,-0.49902 0.21875,-0.19824 0.72461,-0.19824 h 1.68164 v -3.4043 h -1.12793 q -0.49903,0 -0.71778,-0.1914 -0.21875,-0.19825 -0.21875,-0.5127 0,-0.30762 0.21192,-0.49902 0.21875,-0.19825 0.72461,-0.19825 z"
         style="font-style:normal;font-variant:normal;font-weight:bold;font-stretch:normal;font-size:14px;font-family:'Courier New';-inkscape-font-specification:'Courier New Bold';fill:#0000ff;stroke-width:0.75"
         id="path557" />
      <path
         d="m 532.47806,185.47798 v 2.80957 q 0,0.45117 0.18457,0.59473 0.28711,0.22558 1.02539,0.22558 1.07324,0 1.98242,-0.458 0.34863,-0.17774 0.54688,-0.17774 0.27343,0 0.47168,0.20508 0.20507,0.20508 0.20507,0.49902 0,0.27344 -0.21875,0.47168 -0.33496,0.32129 -1.32617,0.59473 -0.98437,0.2666 -1.66113,0.2666 -1.30567,0 -1.96192,-0.56055 -0.64941,-0.56738 -0.64941,-1.38769 v -3.08301 h -0.50586 q -0.50586,0 -0.72461,-0.1914 -0.21191,-0.19825 -0.21191,-0.5127 0,-0.30762 0.21191,-0.49902 0.21875,-0.19825 0.72461,-0.19825 h 0.50586 v -1.26464 q 0,-0.50586 0.19141,-0.71778 0.19824,-0.21875 0.51269,-0.21875 0.30762,0 0.49903,0.21875 0.19824,0.21192 0.19824,0.71778 v 1.26464 h 2.59082 q 0.50586,0 0.71777,0.19825 0.21875,0.1914 0.21875,0.50586 0,0.30761 -0.21875,0.50586 -0.21191,0.1914 -0.71777,0.1914 z"
         style="font-style:normal;font-variant:normal;font-weight:bold;font-stretch:normal;font-size:14px;font-family:'Courier New';-inkscape-font-specification:'Courier New Bold';fill:#0000ff;stroke-width:0.75"
         id="path559" />
      <path
         d="m 541.72708,181.41743 v 1.4834 h -1.66797 v -1.4834 z m 0.19141,2.65918 v 4.80567 h 1.68164 q 0.50586,0 0.71777,0.19824 0.21875,0.19141 0.21875,0.50586 0,0.30762 -0.21875,0.50586 -0.21191,0.19141 -0.71777,0.19141 h -4.76465 q -0.50586,0 -0.72461,-0.19141 -0.21191,-0.19824 -0.21191,-0.5127 0,-0.30761 0.21191,-0.49902 0.21875,-0.19824 0.72461,-0.19824 h 1.68164 v -3.4043 h -1.12793 q -0.49902,0 -0.71777,-0.1914 -0.21875,-0.19825 -0.21875,-0.5127 0,-0.30762 0.21191,-0.49902 0.21875,-0.19825 0.72461,-0.19825 z"
         style="font-style:normal;font-variant:normal;font-weight:bold;font-stretch:normal;font-size:14px;font-family:'Courier New';-inkscape-font-specification:'Courier New Bold';fill:#0000ff;stroke-width:0.75"
         id="path561" />
      <path
         d="m 550.88724,190.28365 v -0.32813 q -0.52637,0.28027 -1.16211,0.41699 -0.63574,0.14356 -1.15528,0.14356 -1.12792,0 -1.83203,-0.59473 -0.7041,-0.60156 -0.7041,-1.32617 0,-0.88184 0.89551,-1.63379 0.90234,-0.75879 2.48828,-0.75879 0.63574,0 1.46973,0.13672 v -0.33496 q 0,-0.31445 -0.27344,-0.5127 -0.2666,-0.19824 -1.02539,-0.19824 -0.62207,0 -1.61328,0.2461 -0.36914,0.0889 -0.57422,0.0889 -0.28027,0 -0.47852,-0.19824 -0.1914,-0.20508 -0.1914,-0.51953 0,-0.17774 0.0684,-0.30762 0.0684,-0.12988 0.1914,-0.20508 0.12305,-0.082 0.5127,-0.1914 0.51953,-0.14356 1.05957,-0.22559 0.54004,-0.0889 0.97754,-0.0889 1.30566,0 2.02344,0.56739 0.7246,0.56054 0.7246,1.53808 v 2.88477 h 0.23926 q 0.50586,0 0.71778,0.19824 0.21875,0.19141 0.21875,0.50586 0,0.30762 -0.21875,0.50586 -0.21192,0.19141 -0.71778,0.19141 z m 0,-2.50879 q -0.84082,-0.16407 -1.55176,-0.16407 -0.85449,0 -1.46973,0.417 -0.38281,0.2666 -0.38281,0.54004 0,0.19824 0.18457,0.32128 0.3418,0.22559 0.93652,0.22559 0.50586,0 1.14161,-0.19824 0.64257,-0.19824 1.1416,-0.54004 z"
         style="font-style:normal;font-variant:normal;font-weight:bold;font-stretch:normal;font-size:14px;font-family:'Courier New';-inkscape-font-specification:'Courier New Bold';fill:#0000ff;stroke-width:0.75"
         id="path563" />
      <path
         d="m 557.68216,185.47798 v 2.80957 q 0,0.45117 0.18457,0.59473 0.28711,0.22558 1.02539,0.22558 1.07324,0 1.98242,-0.458 0.34864,-0.17774 0.54688,-0.17774 0.27343,0 0.47168,0.20508 0.20508,0.20508 0.20508,0.49902 0,0.27344 -0.21875,0.47168 -0.33497,0.32129 -1.32618,0.59473 -0.98437,0.2666 -1.66113,0.2666 -1.30566,0 -1.96191,-0.56055 -0.64942,-0.56738 -0.64942,-1.38769 v -3.08301 h -0.50586 q -0.50586,0 -0.72461,-0.1914 -0.21191,-0.19825 -0.21191,-0.5127 0,-0.30762 0.21191,-0.49902 0.21875,-0.19825 0.72461,-0.19825 h 0.50586 v -1.26464 q 0,-0.50586 0.19141,-0.71778 0.19824,-0.21875 0.51269,-0.21875 0.30762,0 0.49903,0.21875 0.19824,0.21192 0.19824,0.71778 v 1.26464 h 2.59082 q 0.50586,0 0.71777,0.19825 0.21875,0.1914 0.21875,0.50586 0,0.30761 -0.21875,0.50586 -0.21191,0.1914 -0.71777,0.1914 z"
         style="font-style:normal;font-variant:normal;font-weight:bold;font-stretch:normal;font-size:14px;font-family:'Courier New';-inkscape-font-specification:'Courier New Bold';fill:#0000ff;stroke-width:0.75"
         id="path565" />
      <path
         d="m 569.94583,187.89107 h -5.74902 q 0.21875,0.54687 0.77246,0.88183 0.56055,0.33496 1.51074,0.33496 0.7793,0 2.07129,-0.33496 0.5332,-0.13672 0.73828,-0.13672 0.28027,0 0.47168,0.19825 0.19141,0.19824 0.19141,0.49902 0,0.27344 -0.20508,0.46484 -0.27344,0.25293 -1.33301,0.48536 -1.05957,0.22558 -2.03711,0.22558 -1.68164,0 -2.69336,-0.95019 -1.00488,-0.9502 -1.00488,-2.33789 0,-1.47657 1.08691,-2.39942 1.09375,-0.92969 2.51563,-0.92969 0.85449,0 1.56543,0.30079 0.71777,0.30078 1.0664,0.64941 0.49219,0.50586 0.81348,1.25098 0.21875,0.51953 0.21875,1.20312 z m -1.55176,-1.40137 q -0.32129,-0.60156 -0.84082,-0.89551 -0.51953,-0.30078 -1.2373,-0.30078 -0.71094,0 -1.23047,0.30078 -0.51953,0.29395 -0.84766,0.89551 z"
         style="font-style:normal;font-variant:normal;font-weight:bold;font-stretch:normal;font-size:14px;font-family:'Courier New';-inkscape-font-specification:'Courier New Bold';fill:#0000ff;stroke-width:0.75"
         id="path567" />
    </g>
    <g
       aria-label="Launch"
       transform="matrix(0,0.35277777,-0.35277777,0,89.000038,0)"
       id="text538"
       style="font-style:normal;font-variant:normal;font-weight:bold;font-stretch:normal;font-size:14px;line-height:1.25;font-family:'Courier New';-inkscape-font-specification:'Courier New Bold';fill:#0000ff;stroke-width:0.75">
      <path
         d="m 402.8364,183.39986 v 5.48242 h 3.02148 v -1.32617 q 0,-0.50586 0.19141,-0.71778 0.19824,-0.21875 0.51269,-0.21875 0.30762,0 0.49902,0.21875 0.19825,0.21192 0.19825,0.71778 v 2.72754 h -6.6377 q -0.50586,0 -0.72461,-0.19141 -0.21191,-0.19824 -0.21191,-0.5127 0,-0.30761 0.21191,-0.49902 0.21875,-0.19824 0.72461,-0.19824 h 0.81348 v -5.48242 h -0.81348 q -0.50586,0 -0.72461,-0.19141 -0.21191,-0.19824 -0.21191,-0.51269 0,-0.31446 0.21191,-0.50586 0.21875,-0.19825 0.72461,-0.19825 l 3.03516,0.007 q 0.50586,0 0.71777,0.19141 0.21875,0.1914 0.21875,0.50586 0,0.31445 -0.21875,0.51269 -0.21191,0.19141 -0.71777,0.19141 z"
         style="font-style:normal;font-variant:normal;font-weight:bold;font-stretch:normal;font-size:14px;font-family:'Courier New';-inkscape-font-specification:'Courier New Bold';fill:#0000ff;stroke-width:0.75"
         id="path540" />
      <path
         d="m 413.08347,190.28365 v -0.32813 q -0.52637,0.28027 -1.16211,0.41699 -0.63575,0.14356 -1.15528,0.14356 -1.12793,0 -1.83203,-0.59473 -0.7041,-0.60156 -0.7041,-1.32617 0,-0.88184 0.89551,-1.63379 0.90234,-0.75879 2.48828,-0.75879 0.63574,0 1.46973,0.13672 v -0.33496 q 0,-0.31445 -0.27344,-0.5127 -0.2666,-0.19824 -1.02539,-0.19824 -0.62207,0 -1.61328,0.2461 -0.36914,0.0889 -0.57422,0.0889 -0.28028,0 -0.47852,-0.19824 -0.1914,-0.20508 -0.1914,-0.51953 0,-0.17774 0.0684,-0.30762 0.0684,-0.12988 0.19141,-0.20508 0.12305,-0.082 0.5127,-0.1914 0.51953,-0.14356 1.05957,-0.22559 0.54004,-0.0889 0.97754,-0.0889 1.30566,0 2.02343,0.56739 0.72461,0.56054 0.72461,1.53808 v 2.88477 h 0.23926 q 0.50586,0 0.71777,0.19824 0.21875,0.19141 0.21875,0.50586 0,0.30762 -0.21875,0.50586 -0.21191,0.19141 -0.71777,0.19141 z m 0,-2.50879 q -0.84082,-0.16407 -1.55176,-0.16407 -0.85449,0 -1.46973,0.417 -0.38281,0.2666 -0.38281,0.54004 0,0.19824 0.18457,0.32128 0.3418,0.22559 0.93652,0.22559 0.50586,0 1.1416,-0.19824 0.64258,-0.19824 1.14161,-0.54004 z"
         style="font-style:normal;font-variant:normal;font-weight:bold;font-stretch:normal;font-size:14px;font-family:'Courier New';-inkscape-font-specification:'Courier New Bold';fill:#0000ff;stroke-width:0.75"
         id="path542" />
      <path
         d="m 423.20065,184.07661 v 4.80567 q 0.44434,0 0.65625,0.19824 0.21192,0.19824 0.21192,0.50586 0,0.30762 -0.21875,0.50586 -0.21192,0.19141 -0.71778,0.19141 h -1.333 v -0.32129 q -0.60157,0.27343 -1.14844,0.41015 -0.54688,0.13672 -1.03906,0.13672 -0.69043,0 -1.19629,-0.28711 -0.50586,-0.29394 -0.79981,-0.80664 -0.21191,-0.36914 -0.21191,-0.92285 v -3.01465 h -0.23926 q -0.50586,0 -0.72461,-0.1914 -0.21191,-0.19825 -0.21191,-0.5127 0,-0.30762 0.21191,-0.49902 0.21875,-0.19825 0.72461,-0.19825 h 1.64063 v 4.16993 q 0,0.44433 0.21191,0.65625 0.21875,0.20507 0.66309,0.20507 0.42382,0 0.90917,-0.16406 0.49219,-0.1709 1.20997,-0.6084 v -2.85742 h -0.50586 q -0.50586,0 -0.72461,-0.1914 -0.21192,-0.19825 -0.21192,-0.5127 0,-0.30762 0.21192,-0.49902 0.21875,-0.19825 0.72461,-0.19825 z"
         style="font-style:normal;font-variant:normal;font-weight:bold;font-stretch:normal;font-size:14px;font-family:'Courier New';-inkscape-font-specification:'Courier New Bold';fill:#0000ff;stroke-width:0.75"
         id="path544" />
      <path
         d="m 427.20651,184.07661 v 0.47168 q 0.38281,-0.32812 0.84082,-0.49218 0.46485,-0.16407 1.00489,-0.16407 1.24414,0 1.96875,0.77247 0.57421,0.61523 0.57421,1.61328 v 2.60449 q 0.44434,0 0.65625,0.19824 0.21192,0.19141 0.21192,0.50586 0,0.30762 -0.21875,0.50586 -0.21192,0.19141 -0.71778,0.19141 h -1.26464 q -0.50586,0 -0.72461,-0.19141 -0.21192,-0.19824 -0.21192,-0.5127 0,-0.30761 0.21192,-0.49902 0.21191,-0.19824 0.65625,-0.19824 v -2.64551 q 0,-0.45801 -0.2461,-0.66992 -0.32129,-0.27344 -0.96386,-0.27344 -0.48536,0 -0.8545,0.19141 -0.3623,0.18457 -0.92285,0.79297 v 2.60449 q 0.54004,0 0.69727,0.10254 0.33496,0.20508 0.33496,0.60156 0,0.30762 -0.21875,0.50586 -0.21192,0.19141 -0.71777,0.19141 h -1.59278 q -0.50586,0 -0.72461,-0.19141 -0.21191,-0.19824 -0.21191,-0.5127 0,-0.38281 0.32812,-0.59472 0.16407,-0.10254 0.70411,-0.10254 v -3.4043 q -0.44434,0 -0.65625,-0.19824 -0.21192,-0.19824 -0.21192,-0.50586 0,-0.30762 0.21192,-0.49902 0.21875,-0.19825 0.7246,-0.19825 z"
         style="font-style:normal;font-variant:normal;font-weight:bold;font-stretch:normal;font-size:14px;font-family:'Courier New';-inkscape-font-specification:'Courier New Bold';fill:#0000ff;stroke-width:0.75"
         id="path546" />
      <path
         d="m 439.21042,184.32954 q 0.25293,-0.23925 0.51953,-0.23925 0.30078,0 0.49219,0.21875 0.19824,0.21191 0.19824,0.71093 v 0.90235 q 0,0.50586 -0.19824,0.71777 -0.19141,0.21192 -0.50586,0.21192 -0.28711,0 -0.48535,-0.16407 -0.14356,-0.12304 -0.22559,-0.49902 -0.082,-0.38281 -0.39648,-0.56738 -0.55371,-0.32813 -1.41504,-0.32813 -0.99121,0 -1.59278,0.58106 -0.59472,0.58105 -0.59472,1.46972 0,0.82032 0.57422,1.29883 0.57421,0.47168 1.90722,0.47168 0.875,0 1.42871,-0.17773 0.32813,-0.10938 0.62207,-0.36914 0.29395,-0.26661 0.53321,-0.26661 0.28711,0 0.49218,0.21192 0.21192,0.21191 0.21192,0.49902 0,0.46485 -0.63574,0.88184 -0.94336,0.62207 -2.76172,0.62207 -1.63379,0 -2.54297,-0.67676 -1.23047,-0.90918 -1.23047,-2.48828 0,-1.49707 0.99805,-2.47461 0.99804,-0.98438 2.60449,-0.98438 0.58105,0 1.08008,0.10938 0.49902,0.10937 0.92285,0.32812 z"
         style="font-style:normal;font-variant:normal;font-weight:bold;font-stretch:normal;font-size:14px;font-family:'Courier New';-inkscape-font-specification:'Courier New Bold';fill:#0000ff;stroke-width:0.75"
         id="path548" />
      <path
         d="m 443.9819,181.41743 v 2.98731 q 0.4375,-0.25977 0.88184,-0.38281 0.45117,-0.12989 0.90918,-0.12989 0.72461,0 1.29199,0.2461 0.56738,0.24609 0.93652,0.77929 0.37598,0.52637 0.37598,1.33301 v 2.63184 q 0.5332,0 0.69727,0.10254 0.32812,0.21191 0.32812,0.60156 0,0.30762 -0.21191,0.50586 -0.21192,0.19141 -0.71778,0.19141 h -1.59961 q -0.49902,0 -0.71777,-0.19141 -0.21191,-0.19824 -0.21191,-0.5127 0,-0.38281 0.32812,-0.59472 0.1709,-0.10938 0.69727,-0.10254 v -2.53613 q 0,-0.54004 -0.2461,-0.75879 -0.32129,-0.29395 -0.95019,-0.29395 -0.46485,0 -0.82715,0.18457 -0.35547,0.17774 -0.96387,0.7793 v 2.625 q 0.54004,0 0.69727,0.10254 0.33496,0.21191 0.33496,0.60156 0,0.30762 -0.21875,0.50586 -0.21191,0.19141 -0.71777,0.19141 h -1.59278 q -0.50586,0 -0.72461,-0.19141 -0.21191,-0.19824 -0.21191,-0.5127 0,-0.38281 0.33496,-0.59472 0.16406,-0.10938 0.69727,-0.10254 v -6.06348 h -0.23926 q -0.50586,0 -0.72461,-0.1914 -0.21192,-0.19825 -0.21192,-0.5127 0,-0.30762 0.21192,-0.49902 0.21875,-0.19825 0.72461,-0.19825 z"
         style="font-style:normal;font-variant:normal;font-weight:bold;font-stretch:normal;font-size:14px;font-family:'Courier New';-inkscape-font-specification:'Courier New Bold';fill:#0000ff;stroke-width:0.75"
         id="path550" />
    </g>
    <g
       id="g2019"
       transform="rotate(90,92.255953,150.74405)">
      <ellipse
         style="fill:none;fill-rule:evenodd;stroke:#000000;stroke-width:0.193577;stroke-miterlimit:4;stroke-dasharray:none"
         id="path1993"
         cx="2.0000002"
         cy="227"
         rx="1.9032118"
         ry="1.9032116" />
      <ellipse
         style="fill:none;fill-rule:evenodd;stroke:#000000;stroke-width:0.193577;stroke-miterlimit:4;stroke-dasharray:none"
         id="path1993-8"
         cx="12"
         cy="227"
         rx="1.9032118"
         ry="1.9032116" />
      <ellipse
         style="fill:none;fill-rule:evenodd;stroke:#000000;stroke-width:0.193577;stroke-miterlimit:4;stroke-dasharray:none"
         id="path1993-6"
         cx="22"
         cy="227"
         rx="1.9032118"
         ry="1.9032116" />
    </g>
    <g
       aria-label="Set"
       transform="rotate(90)"
       id="text2034"
       style="font-style:normal;font-variant:normal;font-weight:bold;font-stretch:normal;font-size:3.88056px;line-height:1.25;font-family:'Courier New';-inkscape-font-specification:'Courier New Bold';fill:#0000ff;fill-opacity:1;stroke-width:0.264583">
      <path
         d="m 57.356225,-9.8534098 q -0.05116,0.060634 -0.08337,0.077687 -0.03032,0.017053 -0.07579,0.017053 -0.08906,0 -0.144005,-0.058739 -0.05306,-0.060634 -0.05306,-0.1989545 v -0.261483 q 0,-0.140216 0.05306,-0.198955 0.05495,-0.06063 0.144005,-0.06063 0.06821,0 0.113688,0.036 0.04737,0.036 0.072,0.121268 0.02463,0.08337 0.05116,0.113688 0.05495,0.05874 0.195165,0.119372 0.140215,0.06063 0.306958,0.06063 0.259588,0 0.426331,-0.121267 0.106109,-0.0739 0.106109,-0.181902 0,-0.072 -0.05116,-0.134531 -0.05116,-0.06442 -0.166742,-0.106109 -0.07579,-0.02842 -0.339171,-0.07769 -0.318327,-0.05874 -0.48128,-0.14211 -0.162953,-0.08337 -0.257693,-0.234956 -0.09474,-0.151584 -0.09474,-0.327801 0,-0.278536 0.233061,-0.486965 0.233061,-0.210323 0.606338,-0.210323 0.149689,0 0.276641,0.03411 0.128847,0.03221 0.233061,0.100425 0.07579,-0.0739 0.151585,-0.0739 0.08527,0 0.13832,0.06063 0.05495,0.05874 0.05495,0.19706 v 0.2918 q 0,0.140216 -0.05495,0.200849 -0.05305,0.05874 -0.13832,0.05874 -0.072,0 -0.125057,-0.04358 -0.04169,-0.03221 -0.06253,-0.128847 -0.02084,-0.09663 -0.05305,-0.138321 -0.05495,-0.072 -0.164848,-0.121267 -0.109899,-0.04927 -0.253904,-0.04927 -0.210324,0 -0.333486,0.09853 -0.121267,0.09664 -0.121267,0.202744 0,0.072 0.04926,0.140215 0.05116,0.06632 0.147794,0.104215 0.06442,0.02653 0.361908,0.08527 0.299379,0.05874 0.458543,0.128846 0.161058,0.07011 0.267167,0.219798 0.106109,0.149689 0.106109,0.356223 0,0.28801 -0.202744,0.4604376 -0.269062,0.2273766 -0.685919,0.2273766 -0.161059,0 -0.314538,-0.039791 -0.151584,-0.037896 -0.295589,-0.1155831 z"
         style="font-style:normal;font-variant:normal;font-weight:bold;font-stretch:normal;font-size:3.88056px;font-family:'Courier New';-inkscape-font-specification:'Courier New Bold';fill:#0000ff;fill-opacity:1;stroke-width:0.264583"
         id="path11172" />
      <path
         d="M 61.227311,-10.418062 H 59.63378 q 0.06063,0.151585 0.214113,0.24443 0.155374,0.09285 0.418752,0.09285 0.216007,0 0.574125,-0.09285 0.147795,-0.0379 0.204639,-0.0379 0.07769,0 0.130742,0.05495 0.05305,0.05495 0.05305,0.138321 0,0.075792 -0.05684,0.1288469 -0.07579,0.070108 -0.369487,0.1345311 -0.293694,0.062529 -0.564651,0.062529 -0.466122,0 -0.746553,-0.2633778 -0.278537,-0.2633778 -0.278537,-0.6480228 0,-0.409278 0.301274,-0.665077 0.303169,-0.257693 0.697288,-0.257693 0.236851,0 0.433911,0.08337 0.198954,0.08337 0.295589,0.180007 0.136426,0.140215 0.225482,0.346749 0.06063,0.144005 0.06063,0.333485 z m -0.430121,-0.388435 q -0.08906,-0.166742 -0.233061,-0.248219 -0.144005,-0.08337 -0.34296,-0.08337 -0.197059,0 -0.341065,0.08337 -0.144005,0.08148 -0.234955,0.248219 z"
         style="font-style:normal;font-variant:normal;font-weight:bold;font-stretch:normal;font-size:3.88056px;font-family:'Courier New';-inkscape-font-specification:'Courier New Bold';fill:#0000ff;fill-opacity:1;stroke-width:0.264583"
         id="path11174" />
      <path
         d="m 62.485461,-11.086928 v 0.778765 q 0,0.125057 0.05116,0.164848 0.07958,0.06253 0.28422,0.06253 0.297485,0 0.549494,-0.126952 0.09664,-0.04926 0.151584,-0.04926 0.07579,0 0.130741,0.05684 0.05685,0.05684 0.05685,0.138321 0,0.075792 -0.06063,0.1307412 -0.09285,0.089056 -0.367592,0.164848 -0.272852,0.073897 -0.460438,0.073897 -0.361907,0 -0.543809,-0.155374 -0.180006,-0.1572686 -0.180006,-0.3846456 v -0.854557 H 61.95681 q -0.140215,0 -0.200849,-0.05305 -0.05874,-0.05495 -0.05874,-0.14211 0,-0.08527 0.05874,-0.138321 0.06063,-0.05495 0.200849,-0.05495 h 0.140216 v -0.350538 q 0,-0.140216 0.05305,-0.198955 0.05495,-0.06063 0.142111,-0.06063 0.08527,0 0.13832,0.06063 0.05495,0.05874 0.05495,0.198955 v 0.350538 h 0.718131 q 0.140215,0 0.198954,0.05495 0.06063,0.05305 0.06063,0.140215 0,0.08527 -0.06063,0.140216 -0.05874,0.05305 -0.198954,0.05305 z"
         style="font-style:normal;font-variant:normal;font-weight:bold;font-stretch:normal;font-size:3.88056px;font-family:'Courier New';-inkscape-font-specification:'Courier New Bold';fill:#0000ff;fill-opacity:1;stroke-width:0.264583"
         id="path11176" />
    </g>
    <g
       aria-label="+"
       transform="rotate(90)"
       id="text2038"
       style="font-style:normal;font-variant:normal;font-weight:bold;font-stretch:normal;font-size:4.93889px;line-height:1.25;font-family:'Courier New';-inkscape-font-specification:'Courier New Bold';fill:#0000ff;fill-opacity:1;stroke-width:0.264583">
      <path
         d="m 80.78134,-10.460604 v 0.8271673 q 0,0.178456 -0.06752,0.2556262 -0.06752,0.074759 -0.178456,0.074759 -0.110932,0 -0.180868,-0.074759 -0.06752,-0.07717 -0.06752,-0.2556262 v -0.8271673 h -0.70659 q -0.178456,0 -0.255626,-0.06752 -0.07476,-0.06994 -0.07476,-0.180868 0,-0.110932 0.07476,-0.178456 0.07717,-0.06994 0.255626,-0.06752 h 0.70659 v -0.824756 q 0,-0.176044 0.06752,-0.253214 0.06994,-0.07717 0.180868,-0.07717 0.110932,0 0.178456,0.07717 0.06994,0.07476 0.06994,0.253214 l -0.0024,0.824756 h 0.706589 q 0.178456,0 0.253215,0.06752 0.07717,0.06752 0.07717,0.178456 0,0.110932 -0.07717,0.180868 -0.07476,0.06752 -0.253215,0.06752 z"
         style="font-style:normal;font-variant:normal;font-weight:bold;font-stretch:normal;font-size:4.93889px;font-family:'Courier New';-inkscape-font-specification:'Courier New Bold';fill:#0000ff;fill-opacity:1;stroke-width:0.264583"
         id="path11182" />
    </g>
    <g
       aria-label="-"
       transform="rotate(90)"
       id="text2042"
       style="font-style:normal;font-variant:normal;font-weight:bold;font-stretch:normal;font-size:4.93889px;line-height:1.25;font-family:'Courier New';-inkscape-font-specification:'Courier New Bold';fill:#0000ff;fill-opacity:1;stroke-width:0.264583">
      <path
         d="m 71.514304,-10.659157 h -2.064302 v -0.450963 h 2.064302 z"
         style="font-style:normal;font-variant:normal;font-weight:bold;font-stretch:normal;font-size:4.93889px;font-family:'Courier New';-inkscape-font-specification:'Courier New Bold';fill:#0000ff;fill-opacity:1;stroke-width:0.264583"
         id="path11179" />
    </g>
  </g>
</svg>
